<svg width="14400" height="3600" viewBox="0 0 14400 3600" fill="none" xmlns="http://www.w3.org/2000/svg">
<path d="M2039.85 732.77C2026.25 734.636 2011.72 739.17 1998.65 745.436C1929.98 778.636 1901.85 861.703 1936.12 929.836C1977.85 1012.9 2089.18 1031.04 2154.78 965.303C2194.65 925.57 2205.98 865.97 2183.72 814.103C2162.92 765.836 2116.38 734.103 2063.58 732.103C2055.18 731.836 2044.52 732.103 2039.85 732.77Z" fill="#D92723"/>
<path d="M1427.98 1794.37L1428.25 2424.1H2058.25H2688.25L2688.52 1794.37L2688.92 1164.77H2058.25H1427.58L1427.98 1794.37ZM2536.92 1795.44V2274.1H2058.25H1579.58V1795.44V1316.77H2058.25H2536.92V1795.44Z" fill="#D92723"/>
<path d="M1078.92 1659.44C1066.38 1661.44 1049.32 1667.17 1036.92 1673.57C953.715 1716.64 937.449 1828.77 1005.05 1893.44C1030.78 1917.97 1058.78 1929.7 1094.92 1931.04C1116.38 1931.84 1131.05 1929.44 1149.58 1922.24C1172.92 1913.3 1198.65 1892.77 1212.25 1872.77C1240.52 1830.5 1244.25 1779.84 1222.25 1734.77C1204.25 1697.7 1171.32 1671.44 1130.25 1661.44C1119.85 1658.9 1090.12 1657.7 1078.92 1659.44Z" fill="#D92723"/>
<path d="M2992.65 1660.24C2966.52 1664.9 2942.78 1676.9 2923.58 1694.9C2910.38 1707.3 2901.98 1718.9 2894.25 1734.77C2875.18 1773.84 2875.18 1815.7 2894.25 1854.77C2917.05 1901.7 2963.98 1931.3 3015.72 1931.44C3052.52 1931.44 3083.98 1919.17 3110.12 1894.5C3149.45 1857.7 3163.18 1803.97 3146.78 1752.24C3126.38 1688.24 3059.18 1648.1 2992.65 1660.24Z" fill="#D92723"/>
<path d="M2034.65 2596.1C1955.05 2610.5 1905.32 2689.17 1926.38 2767.44C1929.85 2780.64 1940.38 2801.97 1948.65 2812.77C1969.18 2839.84 1998.25 2858.1 2031.58 2865.04C2048.12 2868.5 2076.25 2867.84 2091.85 2863.7C2117.18 2856.9 2138.78 2844.24 2156.25 2825.84C2168.65 2813.04 2175.18 2803.57 2182.25 2788.37C2216.65 2714.9 2179.05 2627.7 2101.58 2601.17C2081.58 2594.37 2055.32 2592.37 2034.65 2596.1Z" fill="#D92723"/>
<path d="M9101.44 1502.81C9029.84 1508.94 8970.51 1533.74 8919.97 1578.81C8875.57 1618.41 8841.71 1676.14 8828.91 1734.27C8823.71 1758.01 8822.24 1772.81 8822.24 1800.01C8822.24 1848.01 8831.31 1886.94 8851.97 1929.34C8895.44 2018.01 8979.71 2079.21 9078.11 2093.47C9100.11 2096.68 9140.51 2096.68 9162.11 2093.47C9295.44 2073.61 9397.71 1970.54 9415.57 1838.01C9417.71 1821.61 9417.97 1780.81 9416.11 1764.67C9410.64 1719.34 9394.51 1674.94 9369.71 1637.34C9322.64 1565.47 9247.71 1517.74 9162.77 1505.47C9148.64 1503.47 9112.51 1501.87 9101.44 1502.81ZM9150.91 1616.14C9175.57 1620.27 9204.11 1631.87 9225.31 1646.41C9238.64 1655.61 9258.37 1674.67 9268.77 1688.54C9284.24 1709.07 9296.37 1736.14 9302.24 1763.34C9305.71 1779.34 9305.71 1819.34 9302.24 1835.21C9296.91 1859.74 9287.17 1883.07 9273.97 1902.94C9264.37 1917.34 9245.57 1937.07 9230.91 1948.14C9209.04 1964.54 9177.71 1978.01 9150.91 1982.54C9134.91 1985.21 9105.97 1985.34 9089.71 1982.67C9000.77 1968.27 8934.77 1890.81 8934.64 1800.67C8934.51 1749.34 8953.04 1704.01 8988.64 1668.14C9015.44 1641.21 9051.84 1622.27 9088.64 1616.14C9103.84 1613.47 9135.44 1613.47 9150.91 1616.14Z" fill="#65615E"/>
<path d="M10736.8 1503.34C10677 1510.14 10625.2 1541.61 10595.6 1589.07C10562.8 1641.74 10565.2 1711.07 10601.4 1759.21C10628 1794.41 10670.6 1820.01 10733.4 1838.54C10777.3 1851.34 10803.3 1863.34 10818.6 1877.47C10831.7 1889.61 10836.4 1899.21 10836.4 1913.74C10836 1964.27 10779.3 1990.54 10708.9 1972.81C10682.5 1966.14 10658.1 1954.54 10628.5 1934.54L10612.4 1923.74L10597.3 1949.21C10588.9 1963.21 10577.6 1982.41 10572 1992.01C10566.4 2001.47 10560 2012.54 10557.7 2016.41L10553.4 2023.34L10563.8 2030.94C10596.1 2054.94 10637.2 2075.61 10671.4 2085.07C10724 2099.87 10782 2099.87 10825 2085.21C10890.8 2062.94 10936.8 2012.14 10951 1946.01C10954.8 1929.07 10954.9 1895.74 10951.6 1880.01C10944.2 1846.41 10928.6 1819.34 10902.5 1794.67C10874.8 1768.67 10835.8 1748.14 10786.1 1733.47C10755.6 1724.41 10724.1 1711.21 10712.1 1702.41C10697.2 1691.47 10690.5 1681.07 10690.6 1668.81C10690.8 1659.87 10692.2 1654.41 10696.6 1646.67C10703.7 1634.81 10720.8 1623.61 10738.8 1619.21C10748.6 1616.81 10774.1 1617.21 10787 1619.87C10807.2 1624.14 10832.6 1634.41 10850.1 1645.21L10855.4 1648.41L10886.9 1602.94C10904.2 1577.87 10918.8 1556.67 10919.2 1555.87C10920.1 1554.14 10888 1534.94 10870.5 1526.81C10846.9 1515.74 10824.8 1509.07 10800.1 1505.47C10782.2 1502.81 10750.5 1501.87 10736.8 1503.34Z" fill="#65615E"/>
<path d="M12290.9 1503.47C12213.3 1510.41 12146.9 1540.41 12095.3 1591.87C12078 1609.34 12067.3 1622.67 12054 1643.61C11996.4 1734.41 11994.6 1856.01 12049.6 1948.01C12098.6 2030.14 12179.6 2081.61 12279.4 2094.14C12299.2 2096.67 12345.3 2096.27 12364.8 2093.47C12421.8 2085.34 12466 2067.21 12514.4 2032.41L12525.4 2024.54L12496.5 1981.61C12480.5 1958.01 12465.7 1935.87 12463.4 1932.41C12461.3 1928.94 12459 1926.14 12458.5 1926.14C12458.1 1926.01 12451.8 1930.01 12444.5 1934.81C12386.2 1973.87 12318.4 1984.14 12255.4 1963.21C12208.4 1947.47 12171 1916.27 12150.6 1875.34C12135 1844.27 12128.9 1807.47 12134.1 1776.01C12147.2 1695.21 12208.4 1638.27 12294.8 1626.67C12348.1 1619.34 12404.6 1634.54 12451.6 1668.81L12458.4 1673.74L12491.8 1624.01L12525.4 1574.14L12513.7 1565.74C12469.2 1533.21 12422.1 1513.74 12369.2 1506.01C12348.4 1502.94 12310.6 1501.61 12290.9 1503.47Z" fill="#65615E"/>
<path d="M13219.6 1503.48C13170.4 1508.68 13124 1532.28 13094.2 1567.34C13064.9 1602.01 13051.7 1642.28 13055.8 1684.68C13060.5 1732.41 13084.8 1771.08 13128.1 1799.74C13152.8 1816.01 13177.7 1827.08 13214.1 1837.88C13243.6 1846.68 13255.6 1851.08 13274.2 1860.14C13308.4 1876.68 13321.7 1895.08 13318.6 1920.94C13315.4 1947.08 13295.7 1966.81 13264.9 1974.81C13229.3 1984.01 13182.4 1975.48 13138.9 1951.74C13132.6 1948.28 13120.1 1940.54 13111.2 1934.54L13094.9 1923.61L13071.3 1963.88C13058.4 1985.88 13045.2 2008.14 13042 2013.34L13036.2 2022.68L13040.5 2026.41C13047.3 2032.41 13072.8 2049.08 13088.8 2057.88C13167.8 2101.88 13265.2 2108.68 13332.6 2075.08C13358.5 2062.28 13385 2040.41 13401 2018.81C13444.9 1959.48 13449 1882.14 13411.4 1825.08C13400.1 1808.14 13377.8 1786.28 13358.8 1773.61C13334.5 1757.61 13312.2 1747.61 13267 1732.81C13218 1716.68 13200 1708.14 13185 1694.14C13167.8 1678.01 13169.6 1652.68 13189 1635.34C13196.1 1628.94 13210.4 1622.01 13221.4 1619.21C13231.3 1616.81 13256.8 1617.21 13269.8 1619.88C13289.7 1624.14 13312.6 1633.34 13331.4 1644.41L13338.2 1648.41L13370.1 1602.28C13387.7 1576.94 13402.2 1555.74 13402.5 1555.34C13403 1554.14 13366.8 1533.08 13353 1526.68C13312.1 1507.61 13262.5 1498.94 13219.6 1503.48Z" fill="#65615E"/>
<path d="M8032.11 1522.28C8033.44 1526.14 8043.84 1554.81 8055.17 1586.01C8085.71 1669.61 8212.11 2016.94 8223.57 2048.68C8229.04 2063.74 8234.11 2077.61 8235.04 2079.74L8236.51 2083.34L8300.37 2083.08L8364.37 2082.68L8389.44 2013.48C8403.31 1975.48 8414.91 1944.14 8415.17 1943.74C8415.57 1943.48 8417.31 1947.61 8419.17 1952.94C8423.04 1964.01 8463.44 2077.48 8464.77 2080.94C8465.71 2083.21 8469.97 2083.34 8529.44 2083.34H8593.17L8594.51 2079.61C8595.31 2077.61 8599.44 2066.68 8603.57 2055.34C8617.31 2017.48 8747.57 1659.61 8771.44 1594.01C8784.51 1558.41 8796.11 1526.14 8797.57 1522.28L8799.97 1515.34H8738.37H8676.77L8662.77 1554.41C8616.51 1682.54 8529.97 1919.34 8529.44 1919.34C8529.04 1919.34 8523.84 1905.61 8517.84 1888.94C8511.84 1872.28 8487.04 1803.48 8462.77 1736.01C8438.37 1668.54 8417.84 1611.34 8416.91 1608.81C8415.31 1604.54 8414.91 1605.48 8398.51 1650.81C8389.17 1676.41 8364.37 1744.41 8343.44 1802.01C8322.37 1859.61 8304.24 1909.48 8303.04 1912.94C8301.84 1916.54 8300.64 1919.34 8300.24 1919.34C8299.57 1919.34 8218.51 1697.34 8166.91 1554.41L8152.77 1515.34H8091.17H8029.57L8032.11 1522.28Z" fill="#65615E"/>
<path d="M9496.11 1799.21V2083.34H9553.44H9610.77V2022.01V1960.68H9632.51L9654.11 1960.81L9679.44 1985.48C9693.44 1999.08 9721.31 2026.68 9741.57 2046.81L9778.51 2083.34H9854.91L9931.44 2083.21L9860.37 2012.94L9789.17 1942.68L9797.04 1938.94C9819.04 1928.14 9846.37 1906.28 9863.97 1885.21C9938.24 1796.14 9934.64 1665.21 9855.44 1582.28C9822.37 1547.61 9785.04 1527.21 9738.37 1518.41C9729.17 1516.68 9709.17 1516.14 9611.84 1515.74L9496.11 1515.21V1799.21ZM9728.11 1633.08C9732.11 1634.28 9740.51 1637.74 9746.77 1640.81C9756.11 1645.48 9760.51 1648.81 9770.91 1659.21C9782.37 1670.68 9784.51 1673.61 9790.51 1686.01C9800.24 1706.28 9802.11 1714.68 9802.11 1738.68C9801.97 1755.48 9801.57 1760.41 9799.04 1769.34C9790.37 1799.74 9770.77 1824.14 9744.77 1836.68C9726.51 1845.61 9723.31 1846.01 9663.84 1846.01H9610.77V1737.88V1629.88L9665.84 1630.41C9711.71 1630.81 9721.97 1631.21 9728.11 1633.08Z" fill="#65615E"/>
<path d="M10002.8 1799.34V2083.34H10060.1H10117.4V2045.61L10117.6 2008.01L10135.7 1985.34C10145.6 1972.81 10166.4 1946.81 10181.7 1927.48C10205.3 1897.88 10210 1892.68 10211.4 1894.14C10212.4 1895.21 10234.6 1922.94 10260.8 1956.01C10286.9 1988.94 10320.2 2031.21 10335 2049.61L10361.7 2083.34H10435C10504.9 2083.34 10508.2 2083.21 10506.5 2080.94C10505.6 2079.74 10496.4 2068.14 10486.2 2055.34C10476 2042.54 10453.4 2014.28 10436.2 1992.68C10419 1971.08 10377.8 1919.48 10344.8 1878.01C10311.7 1836.54 10284.2 1802.01 10283.7 1801.08C10283.2 1800.28 10285.3 1796.41 10288.5 1792.54C10291.7 1788.54 10302.6 1774.81 10312.8 1762.01C10322.9 1749.21 10337.4 1730.81 10345 1721.34C10352.5 1711.74 10367.6 1692.81 10378.4 1679.21C10389.3 1665.61 10412.8 1635.88 10430.8 1613.21C10478.1 1553.48 10493.3 1534.41 10501.2 1524.28L10508.4 1515.34L10435.2 1515.48H10362.1L10344.5 1537.74C10334.9 1550.01 10304.6 1588.14 10277.2 1622.68C10249.8 1657.08 10204.1 1714.68 10175.6 1750.68C10147 1786.54 10122.4 1817.48 10120.6 1819.34L10117.4 1822.68V1668.94V1515.34H10060.1H10002.8V1799.34Z" fill="#65615E"/>
<path d="M11030.8 1799.34V2083.34H11088.1H11145.4V2022.68V1962.01H11195.3C11222.8 1962.01 11251.3 1961.34 11258.9 1960.68C11306.1 1955.88 11349.3 1935.48 11384 1901.61C11439.3 1847.34 11463 1768.68 11447.3 1691.34C11442.5 1667.48 11429.4 1635.88 11415.6 1614.28C11385 1566.68 11333.7 1530.81 11280.8 1520.14C11259.7 1515.88 11244 1515.34 11137.8 1515.34H11030.8V1799.34ZM11264.8 1633.88C11279.6 1638.68 11291.6 1645.74 11302.4 1655.74C11317.7 1670.28 11326.5 1684.41 11333 1705.61C11336.2 1716.14 11336.6 1719.48 11336.6 1738.01C11336.8 1759.88 11335.6 1767.08 11328.9 1783.61C11323.4 1797.21 11317.2 1806.28 11304.8 1818.68C11291.8 1831.61 11281.8 1837.88 11264.8 1843.48C11255.7 1846.54 11253.7 1846.54 11200.5 1847.08L11145.4 1847.48V1738.68V1629.88L11200.5 1630.28C11253.6 1630.81 11255.7 1630.94 11264.8 1633.88Z" fill="#65615E"/>
<path d="M11656.9 1532.27C11650.5 1549.47 11573.4 1761.07 11497.4 1970.01L11456.4 2082.67L11517.2 2083.07C11550.5 2083.21 11578.1 2083.21 11578.2 2082.94C11578.6 2082.54 11582.5 2072.14 11607.4 2004.01C11612.8 1989.34 11618.5 1973.87 11620.1 1969.61L11622.9 1962.01H11724.1C11819 1962.01 11825.2 1962.14 11826.1 1964.27C11826.6 1965.61 11836.6 1992.67 11848.2 2024.54C11860 2056.41 11869.7 2082.67 11870 2082.94C11870.1 2083.21 11897.7 2083.21 11931 2083.07L11991.8 2082.67L11971.2 2026.01C11884.5 1788.01 11837.2 1658.01 11821.4 1614.54C11801.6 1559.87 11788.8 1524.81 11786.5 1518.94L11785.2 1515.34H11724.1H11663.2L11656.9 1532.27ZM11753.4 1764.27C11769 1807.47 11782.1 1843.47 11782.5 1844.27C11782.9 1845.61 11770.6 1846.01 11724.1 1846.01C11677.6 1846.01 11665.3 1845.61 11665.7 1844.27C11707.3 1729.74 11723.4 1686.01 11724.1 1686.01C11724.6 1686.01 11737.7 1721.21 11753.4 1764.27Z" fill="#65615E"/>
<path d="M12596.1 1799.34V2083.34H12783.4H12970.8V2025.34V1967.34H12840.8H12710.8V1910.01V1852.68H12836.1H12961.4V1799.34V1746.01H12836.1H12710.8V1688.68V1631.34H12840.8H12970.8V1573.34V1515.34H12783.4H12596.1V1799.34Z" fill="#65615E"/>
<path d="M4686.24 1502.37C4655.57 1506.9 4638.24 1511.83 4617.44 1522.23C4577.97 1541.97 4549.17 1571.3 4532.64 1608.9C4521.84 1633.43 4517.7 1665.83 4521.7 1692.9C4529.44 1744.23 4562.24 1785.43 4617.84 1813.97C4636.24 1823.43 4653.97 1830.23 4682.64 1838.77C4722.5 1850.77 4744.5 1860.23 4760.9 1872.63C4777.04 1884.77 4784.24 1897.17 4784.24 1912.77C4784.1 1941.57 4764.64 1964.23 4731.57 1973.83C4716.1 1978.23 4684.37 1978.23 4664.24 1973.83C4636.37 1967.57 4607.57 1954.5 4577.57 1934.37C4568.37 1928.23 4560.5 1923.57 4559.97 1923.97C4558.77 1925.17 4503.17 2019.43 4502.24 2021.97C4501.7 2023.17 4505.84 2026.77 4513.84 2032.5C4573.97 2075.17 4632.1 2095.3 4697.57 2096.1C4760.64 2096.9 4813.57 2076.1 4852.64 2035.03C4895.57 1989.83 4912.5 1927.17 4897.44 1868.9C4894.1 1855.57 4883.84 1833.97 4874.77 1820.9C4865.84 1807.97 4848.77 1790.63 4834.77 1780.23C4808.77 1761.03 4783.84 1748.77 4744.9 1736.23C4678.64 1714.77 4656.24 1703.57 4644.5 1685.83C4639.84 1678.9 4639.57 1677.83 4639.57 1667.7C4639.7 1659.17 4640.37 1655.57 4642.77 1650.5C4649.7 1636.5 4667.04 1623.97 4685.84 1619.57C4690.5 1618.5 4700.64 1617.57 4708.5 1617.57C4734.1 1617.57 4755.7 1623.43 4785.17 1638.37L4804.1 1647.97L4835.84 1602.1C4853.3 1576.9 4867.7 1555.7 4867.97 1555.03C4868.5 1553.57 4842.5 1537.97 4824.5 1529.03C4799.57 1516.63 4777.57 1509.43 4750.9 1504.9C4738.77 1502.9 4694.64 1501.17 4686.24 1502.37Z" fill="black"/>
<path d="M5242.24 1502.5C5169.7 1509.17 5105.7 1538.77 5055.57 1588.9C5013.84 1630.63 4985.44 1683.17 4974.37 1738.9C4969.84 1761.57 4969.7 1763.17 4968.77 1788.23C4965.44 1870.63 4996.37 1949.57 5054.77 2008.37C5099.84 2053.7 5158.37 2083.17 5222.9 2093.17C5244.1 2096.5 5290.9 2096.37 5311.57 2093.03C5343.3 2087.97 5369.84 2079.57 5398.24 2065.7C5488.9 2021.3 5548.24 1938.63 5563.04 1836.23C5565.17 1821.17 5565.17 1777.43 5563.04 1761.57C5551.17 1674.1 5504.1 1598.9 5430.9 1550.5C5392.9 1525.43 5342.9 1507.57 5298.24 1503.17C5286.24 1501.97 5252.24 1501.57 5242.24 1502.5ZM5294.9 1615.7C5368.24 1627.43 5427.57 1681.17 5446.1 1752.63C5473.57 1858.1 5403.84 1963.97 5294.9 1982.23C5278.9 1984.9 5243.44 1983.97 5228.24 1980.37C5190.1 1971.57 5157.84 1953.17 5131.84 1925.57C5112.37 1904.9 5100.1 1884.1 5090.9 1856.37C5062.64 1771.57 5100.77 1677.3 5180.24 1635.03C5195.97 1626.77 5220.9 1618.37 5237.57 1615.7C5253.3 1613.3 5279.97 1613.3 5294.9 1615.7Z" fill="black"/>
<path d="M6950.24 1502.37C6888.24 1508.63 6841.17 1524.77 6795.97 1555.17C6773.57 1570.1 6745.17 1596.5 6728.64 1617.57C6695.44 1660.1 6673.84 1713.83 6668.11 1768.1C6666.64 1782.9 6667.04 1828.5 6668.91 1838.9C6675.97 1879.03 6683.04 1901.7 6697.84 1931.43C6711.31 1958.5 6727.31 1980.77 6749.44 2003.43C6775.71 2030.1 6798.91 2047.03 6832.91 2063.7C6894.24 2093.83 6968.37 2103.57 7038.24 2090.77C7077.17 2083.7 7114.51 2069.43 7148.11 2048.63C7161.44 2040.37 7180.77 2026.63 7182.24 2024.37C7182.77 2023.3 7174.37 2010.63 7131.04 1946.63L7115.97 1924.23L7105.71 1931.43C7066.64 1958.9 7024.11 1972.63 6978.91 1972.63C6945.97 1972.63 6918.24 1966.5 6890.11 1953.03C6869.17 1943.03 6856.37 1933.97 6840.11 1917.7C6819.31 1896.9 6808.24 1879.3 6799.57 1853.17C6787.71 1817.43 6786.91 1787.43 6797.04 1752.5C6813.71 1694.63 6859.57 1650.5 6921.17 1633.03C6982.24 1615.57 7045.17 1626.37 7101.84 1663.97L7116.24 1673.43L7129.17 1654.1C7136.37 1643.43 7151.44 1621.17 7162.64 1604.5L7183.17 1574.23L7178.64 1570.5C7170.91 1563.83 7141.44 1544.77 7128.24 1537.7C7097.84 1521.7 7062.91 1510.5 7024.91 1504.77C7012.11 1502.9 6961.57 1501.17 6950.24 1502.37Z" fill="black"/>
<path d="M3553.57 1798.9V2082.9H3610.9H3668.24V2022.23V1961.57H3690.64L3712.9 1961.7L3774.24 2022.23L3835.57 2082.77L3912.64 2082.9H3989.7L3928.64 2022.5C3895.04 1989.3 3863.17 1958.1 3857.97 1953.03C3852.64 1947.97 3848.24 1943.43 3848.24 1943.03C3848.24 1942.63 3852.64 1939.83 3857.97 1937.03C3885.57 1922.1 3915.84 1895.3 3933.84 1869.57C3950.9 1845.43 3963.97 1815.03 3970.5 1784.5C3973.97 1768.77 3974.24 1765.3 3974.1 1737.57C3974.1 1711.7 3973.7 1705.7 3971.17 1693.7C3958.64 1635.97 3929.44 1589.43 3884.9 1556.1C3863.97 1540.5 3840.5 1529.03 3815.3 1522.1C3790.24 1515.3 3783.04 1514.9 3663.97 1514.9H3553.57V1798.9ZM3783.57 1632.63C3795.97 1636.1 3814.77 1646.1 3823.3 1653.7C3864.64 1690.37 3872.1 1755.97 3840.5 1802.63C3831.57 1815.57 3816.24 1828.9 3802.37 1835.57C3782.5 1845.03 3778.37 1845.57 3719.7 1845.57H3668.24V1738.5C3668.24 1679.57 3668.64 1630.9 3669.17 1630.37C3669.84 1629.83 3693.97 1629.57 3722.9 1629.83C3767.04 1630.37 3776.9 1630.77 3783.57 1632.63Z" fill="black"/>
<path d="M4061.57 1798.9V2082.9H4248.9H4436.24V2024.9V1966.9H4306.9H4177.57V1909.57V1852.23H4302.24H4426.9V1798.9V1745.57H4302.24H4177.57V1688.23V1630.9H4306.9H4436.24V1572.9V1514.9H4248.9H4061.57V1798.9Z" fill="black"/>
<path d="M5641.97 1704.5C5642.37 1892.1 5642.37 1894.37 5645.31 1909.03C5660.51 1987.7 5712.51 2051.3 5785.17 2080.1C5813.17 2091.17 5836.77 2095.57 5870.24 2095.57C5896.51 2095.57 5905.31 2094.5 5928.37 2088.77C6007.04 2069.17 6070.24 2006.23 6090.91 1926.5C6099.04 1895.57 6098.91 1897.7 6098.91 1697.43V1514.9H6039.57H5980.24V1690.77C5980.24 1809.43 5979.71 1870.1 5978.77 1877.17C5974.64 1906.9 5958.64 1934.23 5934.51 1952.37C5921.84 1961.97 5912.77 1966.63 5897.57 1971.7C5887.71 1974.9 5884.24 1975.43 5870.24 1975.3C5856.37 1975.3 5852.64 1974.77 5842.91 1971.57C5803.04 1958.63 5775.17 1929.83 5763.84 1889.7C5760.91 1879.57 5760.91 1879.43 5760.51 1697.17L5760.11 1514.9H5700.77H5641.44L5641.97 1704.5Z" fill="black"/>
<path d="M6188.24 1798.9V2082.9H6245.57H6302.9V2022.23V1961.57H6325.3L6347.57 1961.7L6408.9 2022.23L6470.24 2082.77L6547.3 2082.9H6624.37L6563.3 2022.5C6529.7 1989.3 6497.84 1958.1 6492.64 1953.03C6487.3 1947.97 6482.9 1943.43 6482.9 1943.03C6482.9 1942.63 6487.3 1939.83 6492.64 1937.03C6520.24 1922.1 6550.5 1895.3 6568.5 1869.57C6585.57 1845.43 6598.64 1815.03 6605.17 1784.5C6608.64 1768.77 6608.9 1765.3 6608.77 1737.57C6608.77 1711.7 6608.37 1705.7 6605.84 1693.7C6593.3 1635.97 6564.1 1589.43 6519.57 1556.1C6498.64 1540.5 6475.17 1529.03 6449.97 1522.1C6424.9 1515.3 6417.7 1514.9 6298.64 1514.9H6188.24V1798.9ZM6418.24 1632.63C6430.64 1636.1 6449.44 1646.1 6457.97 1653.7C6499.3 1690.37 6506.77 1755.97 6475.17 1802.63C6466.24 1815.57 6450.9 1828.9 6437.04 1835.57C6417.17 1845.03 6413.04 1845.57 6354.37 1845.57H6302.9V1738.5C6302.9 1679.57 6303.3 1630.9 6303.84 1630.37C6304.5 1629.83 6328.64 1629.57 6357.57 1629.83C6401.7 1630.37 6411.57 1630.77 6418.24 1632.63Z" fill="black"/>
<path d="M7254.91 1798.9V2082.9H7442.24H7629.57V2024.9V1966.9H7500.24H7370.91V1909.57V1852.23H7495.57H7620.24V1798.9V1745.57H7495.57H7370.91V1688.23V1630.9H7500.24H7629.57V1572.9V1514.9H7442.24H7254.91V1798.9Z" fill="black"/>
</svg>
